<?xml version="1.0" encoding="UTF-8"?>
<svg version="1.1" viewBox="0 0 24 24" xmlns="http://www.w3.org/2000/svg">
 <g transform="translate(-81.429 -480.93)">
  <g transform="matrix(.2625 0 0 .2625 60.871 354.69)" stroke-width="3.8095">
   <path transform="translate(11.429 -2.1429)" d="m155.2 551.82a45.714 45.714 0 0 1-49.607 21.546 45.714 45.714 0 0 1-35.442-40.853 45.714 45.714 0 0 1 28.331-46.07 45.714 45.714 0 0 1 52.449 13.196l-35.218 29.146z" fill="#d4aa00"/>
   <path transform="matrix(1.1462 0 0 1.1462 -18.284 -77.6)" d="m132.25 514.35a4.2931 4.2931 0 0 1-5.8379 1.5645 4.2931 4.2931 0 0 1-1.6172-5.8235 4.2931 4.2931 0 0 1 5.8087-1.6698 4.2931 4.2931 0 0 1 1.7222 5.7933l-3.7841-2.0277z"/>
   <path d="m136.58 564.18c-2.5754-2.8458-1.5409-10.171 1.4364-10.171 1.4178 0 5.1897 8.825 4.519 10.573-0.76591 1.996-3.9819 1.7791-5.9554-0.40161zm-38.256-33.574c-0.29605-0.77148 0.44849-3.6965 1.6545-6.5 1.9264-4.4781 2.5502-5.0973 5.1354-5.0973 3.9344 0 6.8111 1.6551 6.8111 3.9188 0 2.6426-7.4689 9.0812-10.534 9.0812-1.3907 0-2.7707-0.63122-3.0668-1.4027zm9.851-35.26c-2.0056-0.80928-1.4477-2.9782 1.2148-4.7227 3.0687-2.0107 4.8339-2.029 8.5848-0.0893 3.2248 1.6676 3.856 3.9128 1.3686 4.8673-1.8542 0.71155-9.3599 0.67439-11.168-0.0553z" fill="#715a00" stroke-width="3.8095"/>
  </g>
 </g>
</svg>
