<?xml version="1.0" encoding="UTF-8"?>
<svg version="1.1" viewBox="0 0 240 240" xmlns="http://www.w3.org/2000/svg">
 <g class="jp-icon3 jp-icon-selectable" fill="#616161">
  <path d="m46.15 3.0059c-9.1211 0.065676-17.905 5.8738-26.576 17.047-17.382 22.398-16.955 45.966-8.9375 64.504 8.0177 18.538 22.607 32.809 33.504 41.672a7.5 7.5 0 0 0 10.551-1.0859 7.5 7.5 0 0 0-1.0859-10.551c-9.7714-7.9472-22.755-21.085-29.201-35.988-6.4457-14.903-7.3726-30.81 7.0195-49.355 7.216-9.2984 12.217-11.223 14.836-11.242 2.6194-0.01886 5.4428 1.7627 8.5527 5.8457 6.22 8.1661 10.131 22.607 10.131 22.607a7.5 7.5 0 0 0 9.0723 5.4961 7.5 7.5 0 0 0 5.4961-9.0703s-3.5645-16.041-12.766-28.121c-4.6005-6.04-11.475-11.823-20.596-11.758zm4.8945 143.86a7.5 7.5 0 0 0-5.25 2.0898c-8.7441 8.3968-15.889 16.212-20.592 25.074-4.703 8.8622-6.6205 18.9-4.8164 29.77 1.0774 6.4915 5.0195 12.168 10.379 14.77 5.3594 2.6019 11.193 2.528 16.904 1.377 11.423-2.302 23.445-9.1866 33.793-18.117a7.5 7.5 0 0 0 0.7793-10.578 7.5 7.5 0 0 0-10.578-0.77735c-8.7385 7.5413-19.544 13.276-26.957 14.77-3.7066 0.74696-6.2938 0.36452-7.3906-0.16796-1.0968-0.53249-1.6466-0.81506-2.1309-3.7324-1.3192-7.9479-0.1534-13.835 3.2676-20.281 3.421-6.4463 9.4405-13.325 17.732-21.287a7.5 7.5 0 0 0 0.21484-10.604 7.5 7.5 0 0 0-5.3555-2.3047z"/>
  <path d="m194.77 3.0059c-9.1211-0.065677-15.993 5.7178-20.594 11.758-9.2011 12.08-12.768 28.121-12.768 28.121a7.5 7.5 0 0 0 5.498 9.0703 7.5 7.5 0 0 0 9.0703-5.4961s3.9109-14.441 10.131-22.607c3.11-4.083 5.9353-5.8646 8.5547-5.8457 2.6194 0.01886 7.6179 1.9438 14.834 11.242 14.392 18.545 13.465 34.452 7.0195 49.355-6.4457 14.903-19.43 28.041-29.201 35.988a7.5 7.5 0 0 0-1.0859 10.551 7.5 7.5 0 0 0 10.551 1.0859c10.897-8.8626 25.486-23.134 33.504-41.672 8.0177-18.538 8.4441-42.106-8.9375-64.504-8.6708-11.173-17.455-16.981-26.576-17.047zm-4.8574 143.86a7.5 7.5 0 0 0-5.3926 2.3047 7.5 7.5 0 0 0 0.21485 10.604c8.2919 7.9625 14.311 14.841 17.732 21.287 3.421 6.4463 4.5887 12.333 3.2695 20.281-0.48421 2.9174-1.036 3.1999-2.1328 3.7324-1.0968 0.53248-3.6841 0.91492-7.3906 0.16796-7.4131-1.4939-18.218-7.2282-26.957-14.77a7.5 7.5 0 0 0-10.576 0.77735 7.5 7.5 0 0 0 0.77734 10.578c10.348 8.9306 22.37 15.815 33.793 18.117 5.7116 1.151 11.545 1.2249 16.904-1.377 5.3594-2.6019 9.3015-8.278 10.379-14.77 1.8041-10.87-0.11337-20.907-4.8164-29.77-4.703-8.8622-11.848-16.677-20.592-25.074a7.5 7.5 0 0 0-5.2129-2.0898z"/>
 </g>
 <g class="jp-icon3 jp-icon-selectable" fill="#616161">
  <path d="m120.46 46.92c-31.957 3.75e-4 -57.95 26.301-57.949 58.455 3.96e-4 20.48 10.72 39.269 27.902 49.816v6.1816a7.5 7.5 0 0 0 7.5 7.5 7.5 7.5 0 0 0 7.5-7.5v-10.418a7.5008 7.5008 0 0 0-4.1211-6.6953c-14.562-7.3474-23.781-22.377-23.781-38.885-4.92e-4 -24.128 19.18-43.455 42.949-43.455 23.77-4.92e-4 42.95 19.327 42.949 43.455-3.3e-4 16.508-9.2197 31.537-23.781 38.885a7.5 7.5 0 0 0-3.3164 10.074 7.5 7.5 0 0 0 10.074 3.3164c19.637-9.9084 32.023-30.172 32.023-52.275 6.5e-4 -32.155-25.992-58.456-57.949-58.455z" />
  <path d="m143.91 163.09a7.5 7.5 0 0 0-1.8574 0.25586l-44.389 11.895a7.5 7.5 0 0 0-5.3027 9.1856 7.5 7.5 0 0 0 9.1855 5.3027l44.389-11.895a7.5 7.5 0 0 0 5.3027-9.1856 7.5 7.5 0 0 0-7.3281-5.5586z" />
  <path d="m143.91 183.09a7.5 7.5 0 0 0-1.8574 0.25586l-44.389 11.895a7.5 7.5 0 0 0-5.3027 9.1856 7.5 7.5 0 0 0 9.1855 5.3027l44.389-11.895a7.5 7.5 0 0 0 5.3027-9.1856 7.5 7.5 0 0 0-7.3281-5.5586z" />
  <path d="m135.61 205.36a7.5 7.5 0 0 0-1.8555 0.25391l-27.789 7.4473a7.5 7.5 0 0 0-5.3027 9.1856 7.5 7.5 0 0 0 9.1855 5.3027l27.789-7.4453a7.5 7.5 0 0 0 5.3027-9.1875 7.5 7.5 0 0 0-7.3301-5.5566z" />
  <path d="m120.46 118.37a7.5 7.5 0 0 0-7.5 7.5v30.047a7.5 7.5 0 0 0 7.5 7.5 7.5 7.5 0 0 0 7.5-7.5v-30.047a7.5 7.5 0 0 0-7.5-7.5z" />
  <path d="m105.44 113.39a7.5 7.5 0 0 0-7.5 7.5 7.5 7.5 0 0 0 7.5 7.5h30.047a7.5 7.5 0 0 0 7.5-7.5 7.5 7.5 0 0 0-7.5-7.5h-30.047z" />
 </g>
</svg>
