<?xml version="1.0" encoding="UTF-8"?>
<svg version="1.1" viewBox="0 0 240 240" xmlns="http://www.w3.org/2000/svg">
  <g class="jp-icon3 jp-icon-selectable" fill="#616161">
    <path d="m99.816 204.87v21.5h-16.885q-28.028 0-37.596-8.3297-9.4553-8.3297-9.4553-33.206v-24.201q0-16.997-6.0784-23.413-5.9659-6.5287-21.725-6.5287h-6.9789v-21.5h6.9789q15.759 0 21.725-6.4161 6.0784-6.4161 6.0784-23.526v-24.201q0-24.877 9.4553-33.094 9.5679-8.3297 37.596-8.3297h16.885v21.387h-13.845q-11.707 0-15.646 4.7277-3.9397 4.7277-3.9397 20.824v23.526q0 18.573-5.5156 26.115-5.5156 7.5418-19.699 9.6804 14.183 2.3638 19.699 10.018 5.5156 7.6543 5.5156 26.115v23.076q0 16.209 3.9397 20.937 3.9397 4.8402 15.646 4.8402z"/>
    <path d="m140.23 204.87h13.62q11.707 0 15.759-4.8402 4.0523-4.8402 4.0523-20.937v-23.076q0-18.46 5.5156-26.115 5.5156-7.6543 19.586-10.018-14.183-2.1387-19.699-9.6804-5.403-7.5418-5.403-26.115v-23.526q0-15.871-4.0523-20.712-3.9397-4.8402-15.759-4.8402h-13.62v-21.387h16.885q27.916 0 37.259 8.3297 9.4553 8.2171 9.4553 33.094v24.201q0 16.997 6.0784 23.526 6.191 6.4161 22.062 6.4161h6.9789v21.5h-6.9789q-15.871 0-22.062 6.5287-6.0784 6.5287-6.0784 23.413v24.201q0 24.877-9.4553 33.206-9.3428 8.3297-37.259 8.3297h-16.885z"/>
    <path d="m79.634 115.36 24.97 24.36 49.491-48.283"/>
  </g>
  <g class="jp-icon-contrast3 jp-icon-selectable" fill="#616161">
    <path d="m145.04 82.154-40.432 39.443-15.91-15.521-18.119 18.572 34.029 33.197 58.551-57.119z"/>
 </g>
</svg>
